<svg width="397" height="393" viewBox="0 0 397 393" fill="none" xmlns="http://www.w3.org/2000/svg">
    <path d="M194.463 380.861C297.191 380.861 380.469 297.592 380.469 194.874C380.469 92.156 297.191 8.88672 194.463 8.88672C91.7347 8.88672 8.45703 92.156 8.45703 194.874C8.45703 297.592 91.7347 380.861 194.463 380.861Z"
          fill="#FF7052"/>
    <path d="M32.6651 155.322L31.6797 155.155C31.729 154.869 36.8484 126.357 56.6217 104.492L57.351 105.152C37.7846 126.806 32.7144 155.041 32.6651 155.322Z"
          fill="white"/>
    <path d="M59.6226 86.4214L58.8096 85.8647C58.9672 85.6331 74.7938 62.6791 100.199 51.4805L100.598 52.3821C75.459 63.4674 59.7803 86.1898 59.6226 86.4214Z"
          fill="white"/>
    <path d="M369.609 191.501H368.624C368.624 156.142 352.576 124.093 352.413 123.773L353.29 123.324C353.453 123.664 369.609 155.9 369.609 191.501Z"
          fill="white"/>
    <path d="M350.423 173.066C349.861 164.17 348.046 155.397 345.032 147.008L345.949 146.648C349 155.136 350.838 164.011 351.408 173.012L350.423 173.066Z"
          fill="white"/>
    <path d="M1.75597 148.622L0.770508 148.415C0.834563 148.134 7.05283 119.766 28.8562 91.1016L29.6396 91.6977C7.98902 120.214 1.8151 148.341 1.75597 148.622Z"
          fill="white"/>
    <path d="M32.5615 69.3564L31.8027 68.7209C35.967 63.8634 40.3761 59.2212 45.0128 54.8125L45.6879 55.5269C41.0752 59.9057 36.6938 64.5218 32.5615 69.3564V69.3564Z"
          fill="white"/>
    <path d="M56.9316 55.4887L56.1826 54.8482C56.2664 54.7496 64.7118 44.9946 80.8192 33.9979C102.632 19.2447 127.314 9.2621 153.251 4.70312L153.423 5.68849C127.627 10.217 103.077 20.1409 81.3809 34.8109C65.3721 45.7336 57.0104 55.3901 56.9316 55.4887Z"
          fill="white"/>
    <path d="M379.991 131.485C371.703 97.6871 345.391 68.5105 345.125 68.2198L345.854 67.5547C346.12 67.8503 372.6 97.2141 380.951 131.248L379.991 131.485Z"
          fill="white"/>
    <path d="M387.303 180.687C386.461 170.584 384.748 160.571 382.184 150.762L383.135 150.516C385.714 160.376 387.436 170.442 388.284 180.599L387.303 180.687Z"
          fill="white"/>
    <path d="M392.65 227.127L391.664 226.91C392.507 223.24 393.251 219.269 393.862 215.086L394.847 215.229C394.246 219.456 393.497 223.457 392.65 227.127Z"
          fill="white"/>
    <path d="M396.684 196.819L395.699 196.764C396.473 182.575 395.788 168.893 393.994 162.725L394.94 162.449C396.763 168.716 397.463 182.531 396.684 196.819Z"
          fill="white"/>
    <path d="M381.178 241.703L380.237 241.413C381.972 236.032 383.44 228.549 384.603 219.168L385.588 219.286C384.406 228.716 382.928 236.259 381.178 241.703Z"
          fill="white"/>
    <path d="M386.47 211.049L385.484 210.961C385.849 207.059 386.002 204.462 386.002 204.438L386.987 204.497C386.987 204.521 386.83 207.132 386.47 211.049Z"
          fill="white"/>
    <path d="M286.692 25.3715C260.868 8.93568 217.616 3.28956 217.192 3.23536L217.316 2.25C225.753 3.44117 234.124 5.06256 242.396 7.10783C255.345 10.2758 273.63 15.8776 287.234 24.534L286.692 25.3715Z"
          fill="white"/>
    <path d="M265.145 7.68582C258.217 4.62627 242.125 0.985362 241.962 0.985362L242.179 0C242.341 0.0344877 258.527 3.68525 265.544 6.78422L265.145 7.68582Z"
          fill="white"/>
    <path d="M55.5085 337.053C53.4243 335.403 51.3597 333.674 49.374 331.915L50.0294 331.176C52.0003 332.925 54.05 334.625 56.1244 336.28L55.5085 337.053Z"
          fill="white"/>
    <path d="M38.8639 321.583C10.6206 290.791 5.21041 257.19 5.16113 256.855L6.14659 256.707C6.19587 257.037 11.5666 290.357 39.5981 320.918L38.8639 321.583Z"
          fill="white"/>
    <path d="M46.6043 319.035C36.4983 310.699 27.0428 291.667 26.9492 291.489L27.8312 291.051C27.9248 291.238 37.2867 310.073 47.235 318.276L46.6043 319.035Z"
          fill="white"/>
    <path d="M144.539 382.321C129.862 379.463 115.654 374.573 102.327 367.792L102.776 366.91C116.02 373.647 130.14 378.503 144.727 381.336L144.539 382.321Z"
          fill="white"/>
    <path d="M84.9192 357.613C81.0658 355.085 77.3715 352.322 73.8574 349.341L74.5127 348.602C77.9928 351.554 81.6508 354.29 85.4662 356.795L84.9192 357.613Z"
          fill="white"/>
    <path d="M203.396 392.667L203.347 391.681C206.993 391.504 210.56 391.233 213.945 390.863L214.054 391.849C210.639 392.174 207.052 392.469 203.396 392.667Z"
          fill="white"/>
    <path d="M190.433 392.875C176.477 392.697 162.555 391.475 148.782 389.22L148.96 388.234C162.677 390.482 176.543 391.701 190.443 391.88L190.433 392.875Z"
          fill="white"/>
    <path d="M82.6224 328.235C51.541 306.448 40.085 271.877 39.9766 271.527L40.9128 271.227C41.0212 271.567 52.3835 305.832 83.1891 327.427L82.6224 328.235Z"
          fill="white"/>
    <path d="M150.581 365.938C126.191 361.652 101.761 345.324 101.52 345.157L102.071 344.344C102.313 344.506 126.57 360.72 150.753 364.967L150.581 365.938Z"
          fill="white"/>
    <path d="M110.443 336.324C103.954 334.284 96.1143 327.022 95.7842 326.712L96.4543 325.992C96.5331 326.066 104.461 333.412 110.743 335.383L110.443 336.324Z"
          fill="white"/>
</svg>
