<svg width="163" height="112" viewBox="0 0 163 112" fill="none" xmlns="http://www.w3.org/2000/svg">
    <path d="M52.1649 15.5524C47.213 18.5676 25.6757 31.1704 10.1251 43.0243C7.65187 44.9081 5.80974 47.4992 4.84307 50.4539C2.8278 56.6075 1.01948 63.441 0.502111 65.4216C0.381449 65.8806 0.445104 66.3686 0.679487 66.7814C2.13304 69.3433 10.1005 78.1623 53.5101 93.5142L63.6998 71.4766C63.6998 71.4766 57.2647 30.4708 55.2888 16.789C55.0918 15.3947 53.5249 14.7345 52.1649 15.5524Z"
          fill="white"/>
    <path d="M0.896484 67.1305C2.86741 71.8406 25.3359 86.3451 53.5103 93.5136L54.343 91.7055C43.4142 82.1228 24.5081 72.4909 10.49 68.8845C5.32614 67.5592 2.52742 66.9433 0.896484 67.1305Z"
          fill="#F2BDBA"/>
    <path d="M54.8509 25.0448C52.226 22.8724 49.0873 21.4101 45.7354 20.7979L45.9226 19.8125C49.4348 20.4519 52.7252 21.9782 55.4816 24.2466L54.8509 25.0448Z"
          fill="black"/>
    <path d="M4.89207 69.7736C11.1005 74.6659 27.3458 83.5687 47.4049 90.0721L48.0652 88.6876C39.7774 81.6472 20.9009 72.9218 5.29611 68.9508C5.19756 68.9429 5.09889 68.9647 5.01293 69.0136C4.92697 69.0624 4.85769 69.136 4.81411 69.2248C4.77054 69.3135 4.75466 69.4133 4.76857 69.5112C4.78247 69.6091 4.8255 69.7005 4.89207 69.7736V69.7736Z"
          fill="black"/>
    <path d="M148.923 9.96974L148.193 5.53561C147.587 1.85528 143.946 0.0569992 140.428 1.30348C135.816 2.93918 129.834 4.88034 126.592 7.40287C125.959 7.89369 125.458 8.53446 125.135 9.26731C124.811 10.0002 124.675 10.802 124.739 11.6005C125.927 26.0016 127.287 37.2199 127.932 42.1812C128.044 43.0496 127.96 43.932 127.685 44.7634C127.411 45.5948 126.953 46.354 126.346 46.9849L111.958 61.9525L126.548 69.4068L153.86 43.9647L148.923 9.96974Z"
          fill="#274D76"/>
    <path d="M53.5254 93.5137L63.9614 70.944C64.8462 69.0268 66.2366 67.3869 67.9832 66.2003C69.7298 65.0137 71.7667 64.3253 73.8752 64.209L95.5011 63.0069C100.824 62.7157 106.004 61.1783 110.623 58.5186V58.5186C112.482 57.4513 114.591 56.8951 116.734 56.9064C118.878 56.9176 120.98 57.4959 122.828 58.5826C124.035 59.292 125.433 59.6081 126.828 59.4871C128.223 59.3662 129.546 58.8142 130.613 57.9076L138.423 51.2761C138.865 50.901 139.213 50.4274 139.439 49.8935C139.665 49.3596 139.762 48.7802 139.724 48.2018C139.31 41.9201 137.994 21.3655 137.832 11.3444C137.819 10.6614 138.002 9.98906 138.358 9.40614C138.714 8.82322 139.229 8.35391 139.842 8.05325C145.045 5.51595 153.18 4.27932 159.423 5.34351C160.176 5.46335 160.866 5.83351 161.381 6.3941C161.897 6.95469 162.209 7.67292 162.266 8.43262C162.685 15.271 158.019 22.5972 158.019 22.5972L162.128 53.5228C162.574 56.8722 162.104 60.28 160.767 63.3833C159.43 66.4866 157.276 69.1693 154.535 71.146L128.554 89.9171C126.582 91.3437 124.532 92.6595 122.414 93.8586V93.8586C117.385 96.713 112.005 98.8993 106.41 100.362L86.4989 105.57L53.5254 93.5137Z"
          fill="#FFF3A1"/>
    <path d="M62.4637 73.2361L74.5602 71.3984L83.9615 81.39L65.7404 98.7274L56.1025 87.8343L62.4637 73.2361Z"
          fill="#274D76"/>
    <path d="M91.5471 66.6437C93.8874 57.5643 88.4235 48.3069 79.3432 45.9669C70.2628 43.6268 61.0045 49.0902 58.6642 58.1696C56.3239 67.249 61.7878 76.5064 70.8682 78.8464C79.9485 81.1865 89.2068 75.7232 91.5471 66.6437Z"
          fill="#FFF3A1"/>
    <path d="M32.2586 57.0791L35.4663 52.1523C35.5942 51.9554 35.6779 51.7331 35.7117 51.5007C35.7455 51.2684 35.7286 51.0315 35.6621 50.8063C35.5957 50.5811 35.4812 50.373 35.3266 50.1962C35.172 50.0195 34.9809 49.8784 34.7666 49.7825L33.4263 49.1814C33.2418 49.0998 33.0825 48.9704 32.9648 48.8065C32.847 48.6427 32.7751 48.4505 32.7565 48.2496C32.738 48.0487 32.7733 47.8465 32.859 47.6639C32.9447 47.4812 33.0776 47.3248 33.244 47.2107L47.5677 37.2783C47.732 37.1655 47.8614 37.009 47.9415 36.8266C48.0216 36.6442 48.0491 36.443 48.0209 36.2458C47.9927 36.0485 47.91 35.8631 47.782 35.7104C47.6541 35.5577 47.486 35.4437 47.2967 35.3814L40.7138 33.2087C40.3311 33.0821 39.9246 33.0442 39.525 33.098C39.1255 33.1517 38.7435 33.2958 38.4079 33.5191L24.3059 42.88C23.4394 43.4519 22.7351 44.2376 22.2611 45.1611L20.2901 49.0238C20.0533 49.4852 19.9137 49.9903 19.8801 50.5078C19.8464 51.0254 19.9193 51.5443 20.0944 52.0325C20.2695 52.5207 20.5429 52.9678 20.8978 53.346C21.2527 53.7242 21.6815 54.0256 22.1576 54.2314L30.2335 57.7245C30.5923 57.8778 30.9943 57.8969 31.3661 57.7785C31.7379 57.66 32.0546 57.4117 32.2586 57.0791V57.0791ZM49.1937 54.8867L48.4694 54.4334C48.1551 54.2389 47.9226 53.9363 47.8155 53.5825C47.7085 53.2288 47.7342 52.8481 47.888 52.5119L48.8735 50.3983C49.1464 49.7986 49.1839 49.1182 48.9786 48.4922C48.7732 47.8661 48.34 47.3401 47.7648 47.0185L44.5276 45.2203C44.226 45.0524 43.8942 44.9459 43.5513 44.9069C43.2084 44.8678 42.8611 44.897 42.5295 44.9927C42.198 45.0884 41.8886 45.2488 41.6193 45.4646C41.3499 45.6803 41.1259 45.9473 40.9602 46.25L31.1795 64.0702C30.8607 64.6448 30.7694 65.3182 30.9236 65.9569C31.0778 66.5956 31.4663 67.1531 32.0122 67.519L35.4613 69.8494C35.7636 70.0522 36.1048 70.1899 36.4632 70.2537C36.8216 70.3174 37.1894 70.3058 37.5431 70.2196C37.8967 70.1334 38.2286 69.9745 38.5174 69.7529C38.8063 69.5314 39.0459 69.2522 39.2209 68.933L42.0245 63.8239C42.1234 63.6419 42.2585 63.4821 42.4215 63.3544C42.5845 63.2266 42.772 63.1335 42.9723 63.0809C43.1726 63.0283 43.3816 63.0172 43.5864 63.0484C43.7912 63.0796 43.9874 63.1524 44.163 63.2622L44.5473 63.4938C44.7463 63.6162 44.9685 63.696 45.2 63.728C45.4314 63.7599 45.667 63.7434 45.8917 63.6795C46.1165 63.6155 46.3254 63.5056 46.5054 63.3566C46.6853 63.2075 46.8323 63.0227 46.937 62.8139L49.8294 57.0988C50.0237 56.7182 50.0662 56.278 49.9481 55.8673C49.8301 55.4566 49.5605 55.1061 49.1937 54.8867Z"
          fill="#3834A5"/>
    <path d="M104.631 71.7935C102.349 69.7575 99.3705 68.6797 96.3143 68.7843C93.258 68.8889 90.3599 70.1679 88.2229 72.3552L75.0326 85.8645C74.5268 86.3823 73.8928 86.7567 73.1951 86.9497C72.4975 87.1427 71.7612 87.1474 71.0611 86.9632L51.4455 81.8146C50.0918 81.4595 48.8645 80.7325 47.9028 79.7158L42.2709 73.7396C42.1644 73.6194 42.0301 73.527 41.8797 73.4705C41.7293 73.4141 41.5674 73.3952 41.4081 73.4156C41.2487 73.436 41.0968 73.495 40.9655 73.5876C40.8342 73.6801 40.7275 73.8033 40.6547 73.9465C40.3492 74.5722 40.162 75.597 40.4724 77.2573C41.1869 80.9524 39.0386 80.9426 36.8656 79.2034L32.5788 75.7547C32.3367 75.5605 32.0447 75.4387 31.7363 75.4034C31.4279 75.3681 31.1158 75.4207 30.8361 75.5551C30.5563 75.6896 30.3203 75.9004 30.1553 76.1632C29.9902 76.4261 29.9029 76.7302 29.9033 77.0406C29.9033 78.7255 30.1349 80.6568 31.1056 81.7407C29.1347 87.6825 32.4507 94.7377 37.718 97.5854C43.7983 100.872 76.5699 110.996 76.5699 110.996C78.1324 111.458 79.7906 111.488 81.3691 111.085C82.9477 110.682 84.3879 109.859 85.5376 108.705L105.138 88.9979C106.272 87.8548 107.162 86.4931 107.753 84.9956C108.344 83.4981 108.624 81.8961 108.577 80.2868C108.529 78.6776 108.155 77.0949 107.477 75.6348C106.798 74.1747 105.83 72.8678 104.631 71.7935Z"
          fill="#FFF3A1"/>
    <path d="M65.4097 52.0644C63.2525 53.6639 61.6155 55.8645 60.7041 58.3904C59.686 61.1907 59.5716 64.2396 60.3768 67.1083C61.182 69.977 62.8663 72.5212 65.1929 74.3829C67.6565 76.4176 71.4653 76.9004 75.2248 74.575C77.7359 72.9622 79.6365 70.5572 80.6252 67.7415C81.5087 65.3722 81.7194 62.8048 81.2342 60.3231C80.7489 57.8415 79.5866 55.5425 77.8757 53.6804C75.0967 50.5962 68.908 49.5222 65.4097 52.0644Z"
          fill="black"/>
    <path d="M90.2289 97.3738C89.8828 97.3732 89.5429 97.2815 89.2435 97.1078C86.8291 95.6987 82.4734 92.9594 80.4236 90.4073C80.1412 90.05 79.9912 89.6058 79.9993 89.1504C80.0074 88.6951 80.173 88.2565 80.4679 87.9094V87.9094L86.8734 80.194C87.2006 79.8027 87.6648 79.5511 88.1713 79.4907C88.6778 79.4302 89.1882 79.5655 89.5983 79.8689C91.6086 81.3469 95.2696 84.1207 97.2159 85.8402C97.5913 86.1705 97.8291 86.6298 97.882 87.127C97.9349 87.6243 97.7992 88.1233 97.5017 88.5253C95.2647 91.5503 93.0326 94.8217 91.9042 96.4969C91.719 96.7698 91.4691 96.9927 91.1768 97.1458C90.8845 97.2988 90.5589 97.3771 90.2289 97.3738V97.3738ZM88.3911 80.4601C88.2422 80.4581 88.0948 80.4899 87.96 80.553C87.8251 80.6162 87.7063 80.709 87.6125 80.8247L81.207 88.5401C81.0572 88.7123 80.9718 88.9313 80.9655 89.1596C80.9592 89.3878 81.0324 89.6112 81.1725 89.7915C83.1927 92.3091 87.8244 95.1518 89.7165 96.2554C89.938 96.3833 90.1996 96.4229 90.449 96.3663C90.6984 96.3097 90.9172 96.161 91.0617 95.95C92.1949 94.2601 94.4369 90.9788 96.6837 87.939C96.8399 87.7373 96.9118 87.4829 96.8842 87.2293C96.8566 86.9757 96.7318 86.7426 96.5359 86.5792C94.6192 84.8794 90.9828 82.1451 88.9824 80.667C88.813 80.5356 88.6054 80.4629 88.3911 80.4601V80.4601Z"
          fill="black"/>
    <path d="M73.163 89.8425L72.2969 90.3125L81.2376 106.784L82.1037 106.314L73.163 89.8425Z" fill="black"/>
    <path d="M73.2049 98.6027L72.2578 98.875L75.0189 108.478L75.966 108.205L73.2049 98.6027Z" fill="black"/>
    <path d="M68.7699 91.4451L67.915 105.875L68.8988 105.933L69.7537 91.5033L68.7699 91.4451Z" fill="black"/>
    <path d="M42.7195 97.0116L41.7686 96.7554L44.2962 87.286C44.3691 87.0022 44.5415 86.7539 44.7821 86.5865C45.0227 86.4192 45.3154 86.3439 45.6069 86.3743C45.8984 86.4048 46.1693 86.539 46.3701 86.7525C46.5709 86.966 46.6882 87.2445 46.7008 87.5373L46.9816 93.2081C46.981 93.2613 46.9995 93.3131 47.0339 93.3538C47.0683 93.3945 47.1162 93.4215 47.1689 93.4298C47.2199 93.4428 47.2739 93.4376 47.3216 93.4151C47.3693 93.3927 47.4076 93.3543 47.43 93.3066L51.0614 86.0938L51.9385 86.5372L48.2874 93.75C48.1656 93.9907 47.9676 94.1843 47.7243 94.3006C47.481 94.417 47.206 94.4496 46.9422 94.3934C46.6784 94.3371 46.4406 94.1952 46.2659 93.9897C46.0912 93.7842 45.9895 93.5267 45.9765 93.2573L45.6956 87.5866C45.6957 87.5294 45.6737 87.4745 45.6342 87.4332C45.5947 87.3919 45.5408 87.3674 45.4837 87.3649C45.4277 87.356 45.3705 87.369 45.3238 87.4011C45.277 87.4331 45.2444 87.4819 45.2324 87.5373L42.7195 97.0116Z"
          fill="black"/>
    <path d="M143.984 47.3941L143.829 48.3672L158.252 50.6642L158.407 49.6911L143.984 47.3941Z" fill="black"/>
    <path d="M144.985 51.8399L144.627 52.7578L158.167 58.0444L158.525 57.1266L144.985 51.8399Z" fill="black"/>
    <path d="M145.196 55.6776L144.449 56.3203L154.023 67.4457L154.77 66.8031L145.196 55.6776Z" fill="black"/>
    <path d="M143.315 15.9116H143.281C143.037 15.9078 142.799 15.8331 142.597 15.6966C142.395 15.5601 142.237 15.3678 142.143 15.143L141.344 13.2955C141.323 13.2424 141.287 13.1969 141.239 13.1652C141.191 13.1335 141.135 13.1171 141.078 13.1181V13.1181C141.021 13.1182 140.965 13.1356 140.917 13.1681C140.87 13.2007 140.833 13.2468 140.812 13.3004L139.925 15.5273L139.009 15.1627L139.901 12.9358C139.993 12.7008 140.154 12.4987 140.362 12.3556C140.57 12.2125 140.816 12.1349 141.068 12.1327C141.318 12.1318 141.562 12.2041 141.77 12.3408C141.979 12.4774 142.143 12.6724 142.241 12.9013L143.039 14.7538C143.061 14.8046 143.096 14.8483 143.142 14.8797C143.187 14.9111 143.24 14.929 143.296 14.9312C143.351 14.9314 143.406 14.9163 143.454 14.8876C143.501 14.859 143.54 14.8178 143.567 14.7686L144.143 13.6157C144.237 13.4277 144.376 13.2658 144.548 13.1444C144.72 13.0231 144.919 12.9461 145.128 12.9203C145.336 12.8944 145.548 12.9205 145.744 12.9963C145.94 13.0721 146.115 13.1952 146.252 13.3546L147.213 14.4878C147.247 14.5275 147.291 14.5573 147.34 14.5738C147.39 14.5903 147.443 14.5929 147.494 14.5814C147.545 14.5713 147.593 14.547 147.631 14.5113C147.669 14.4756 147.697 14.4299 147.71 14.3794L148.292 12.453C148.355 12.2453 148.469 12.057 148.625 11.906C148.781 11.755 148.973 11.6462 149.183 11.59C149.392 11.5338 149.613 11.5319 149.823 11.5847C150.034 11.6374 150.228 11.7429 150.386 11.8913L152.244 13.6354C152.281 13.6704 152.328 13.6948 152.378 13.7061C152.428 13.7173 152.48 13.715 152.529 13.6995C152.578 13.6854 152.623 13.6582 152.657 13.6209C152.692 13.5836 152.716 13.5375 152.726 13.4876L153.091 11.911C153.142 11.6986 153.246 11.5026 153.393 11.3417C153.541 11.1807 153.727 11.0602 153.935 10.9916C154.142 10.923 154.364 10.9085 154.578 10.9496C154.793 10.9907 154.993 11.0859 155.161 11.2262L156.506 12.3397C156.544 12.3778 156.593 12.4044 156.646 12.4163C156.699 12.4282 156.754 12.425 156.806 12.407C156.857 12.3891 156.902 12.3571 156.936 12.3147C156.97 12.2723 156.992 12.2212 156.998 12.1672L157.25 10.6054C157.286 10.3771 157.384 10.163 157.533 9.98593C157.681 9.80886 157.875 9.67551 158.094 9.60013C158.312 9.52474 158.547 9.51016 158.774 9.55792C159 9.60569 159.209 9.71403 159.378 9.87134C159.419 9.9108 159.471 9.93705 159.528 9.94671C159.584 9.95636 159.642 9.94899 159.694 9.92554C159.745 9.90264 159.789 9.86532 159.819 9.81809C159.85 9.77087 159.866 9.71577 159.866 9.65949V8.53125H160.852V9.65949C160.852 9.9077 160.779 10.1505 160.643 10.3582C160.507 10.5659 160.314 10.7294 160.086 10.8288C159.859 10.9281 159.607 10.959 159.362 10.9176C159.118 10.8762 158.89 10.7643 158.708 10.5956C158.67 10.5592 158.623 10.534 158.572 10.5227C158.52 10.5114 158.467 10.5145 158.417 10.5315C158.367 10.5489 158.323 10.5797 158.289 10.6205C158.255 10.6613 158.233 10.7106 158.225 10.7631L157.974 12.32C157.936 12.5423 157.84 12.7506 157.695 12.9236C157.551 13.0967 157.363 13.2284 157.151 13.3053C156.939 13.3857 156.71 13.4071 156.487 13.3671C156.264 13.3272 156.056 13.2275 155.885 13.0787L154.535 11.9554C154.499 11.921 154.454 11.8976 154.405 11.888C154.356 11.8784 154.305 11.883 154.259 11.9012C154.211 11.9147 154.168 11.9411 154.134 11.9776C154.1 12.0141 154.077 12.0593 154.067 12.1081L153.702 13.6847C153.653 13.9048 153.546 14.1078 153.392 14.273C153.238 14.4383 153.044 14.5599 152.828 14.6255C152.612 14.6911 152.383 14.6983 152.163 14.6464C151.944 14.5946 151.742 14.4854 151.578 14.3301L149.716 12.586C149.68 12.5514 149.635 12.5269 149.587 12.5148C149.539 12.5027 149.488 12.5034 149.44 12.517C149.393 12.5312 149.35 12.5565 149.315 12.5908C149.28 12.6252 149.253 12.6674 149.238 12.7141L148.661 14.6405C148.596 14.8602 148.472 15.0581 148.303 15.2134C148.134 15.3686 147.927 15.4756 147.703 15.523C147.478 15.5704 147.245 15.5565 147.028 15.4827C146.811 15.4089 146.618 15.2779 146.469 15.1036L145.513 13.9951C145.482 13.9576 145.443 13.9284 145.398 13.9103C145.353 13.8922 145.305 13.8858 145.257 13.8916C145.21 13.8986 145.165 13.9165 145.127 13.9439C145.088 13.9713 145.057 14.0074 145.035 14.0493L144.458 15.2021C144.353 15.4155 144.19 15.5951 143.988 15.7205C143.786 15.8459 143.553 15.9121 143.315 15.9116V15.9116Z"
          fill="black"/>
    <path d="M140.53 9.55103L140.037 10.3984L144.72 13.1205L145.212 12.2731L140.53 9.55103Z" fill="black"/>
    <path d="M147.664 8.1232L147.181 8.98047L153.264 12.4061L153.746 11.5489L147.664 8.1232Z" fill="black"/>
    <path d="M151.89 6.00427L151.468 6.89453L156.498 9.28078L156.921 8.39052L151.89 6.00427Z" fill="black"/>
    <path d="M69.4352 61.1156C66.9075 63.8253 64.0595 66.7814 62.8967 63.6972C62.1723 61.7807 62.5123 58.4058 64.3354 56.0951C65.7693 54.2722 68.3364 53.2376 70.5439 53.2031C71.0686 53.1779 71.592 53.2752 72.0727 53.4873C72.5533 53.6994 72.9779 54.0204 73.313 54.4249C74.9341 56.4696 72.2487 58.0856 69.4352 61.1156Z"
          fill="#74BAAB"/>
    <path d="M39.3195 80.829C38.536 80.829 37.5752 80.4003 36.5553 79.5874C35.4368 78.6858 33.6925 77.2866 32.2734 76.1387L32.8893 75.375L37.1712 78.8238C38.2207 79.6663 39.2406 80.0407 39.7087 79.7599C40.1768 79.479 40.2359 78.6316 39.9896 77.3605C39.6989 75.848 39.7728 74.6261 40.2162 73.7344L41.0982 74.1729C40.8617 74.6655 40.6449 75.5573 40.9603 77.1733C41.3002 78.9469 41.0489 80.0998 40.2212 80.622C39.9451 80.7719 39.6333 80.8434 39.3195 80.829V80.829Z"
          fill="black"/>
    <path d="M75.3823 86.2081L74.6777 85.5184L87.8731 72.0091C90.0945 69.7259 93.1128 68.39 96.2966 68.2807C99.4805 68.1714 102.583 69.2973 104.956 71.4228L104.301 72.1569C102.116 70.2014 99.2605 69.1659 96.3302 69.2669C93.4 69.3679 90.6222 70.5976 88.5777 72.6988L75.3823 86.2081Z"
          fill="black"/>
    <path d="M104.78 88.661L91.3916 102.113L92.0901 102.808L105.478 89.3561L104.78 88.661Z" fill="black"/>
</svg>
