<svg width="237" height="256" viewBox="0 0 237 256" fill="none" xmlns="http://www.w3.org/2000/svg">
    <path d="M134.224 73.4175C133.402 69.747 131.14 58.4695 131.115 58.3562L132.101 58.1641C132.125 58.2774 134.382 69.5401 135.205 73.2007L134.224 73.4175Z"
          fill="black"/>
    <path d="M144.207 74.6126C143.116 72.9608 142.295 71.1466 141.773 69.2375C141.586 68.5526 141.418 67.8974 141.25 67.2667C140.418 64.0791 139.772 61.5566 138.171 60.1031L138.836 59.3789C140.644 61.0294 141.334 63.6702 142.206 67.0204C142.369 67.651 142.537 68.3014 142.699 68.9911C143.189 70.7942 143.964 72.5073 144.995 74.0657L144.207 74.6126Z"
          fill="black"/>
    <path d="M148.887 74.8419L147.902 74.8124C147.927 74.0389 147.853 73.0289 147.779 71.9598C147.705 70.8906 147.621 69.6195 147.621 68.4174C147.621 66.2299 148.163 64.0867 149.07 62.6875L149.898 63.2245C149.003 64.806 148.557 66.6013 148.607 68.4174C148.607 69.585 148.685 70.7576 148.764 71.8908C148.843 73.024 148.912 74.0241 148.887 74.8419Z"
          fill="black"/>
    <path d="M172.209 122.012L118.777 128.288C114.509 128.789 110.433 130.342 106.914 132.808C103.395 135.273 100.543 138.574 98.6145 142.414L74.6974 190.465C74.2018 191.451 73.3916 192.244 72.3949 192.719C71.3983 193.194 70.2718 193.323 69.1936 193.086L60.694 191.209C57.8215 190.576 54.8159 191.059 52.2867 192.56C49.7575 194.062 47.8942 196.469 47.0749 199.294L45.7396 203.89C45.3833 205.124 45.4655 206.444 45.9721 207.624C46.4787 208.804 47.3786 209.772 48.5186 210.364L87.7597 230.697C89.0113 231.347 90.4634 231.495 91.8207 231.113C93.178 230.73 94.3387 229.845 95.0669 228.638L134.485 164.427L188.991 160.978L172.209 122.012Z"
          fill="#274D76"/>
    <path d="M141.965 80.9779L145.862 71.2031L178.102 72.9275L166.385 117.19L141.965 80.9779Z" fill="#274D76"/>
    <path d="M137.895 57.3495C137.895 57.3495 141.438 48.1807 141.383 43.2046C141.314 36.5731 142.034 23.0934 137.811 23.729C135.239 24.1133 134.47 30.3506 134.16 33.0258C134.046 34.0868 133.613 35.0883 132.918 35.8982C131.908 37.0412 130.455 37.4748 129.72 32.3164C128.494 23.9113 128.735 7.73655 123.877 10.6976C121.413 12.1756 122.729 26.887 121.334 26.2367C119.94 25.5864 120.107 3.40588 114.155 5.82494C112.184 6.62801 112.628 17.2206 113.037 23.1525C113.037 23.2182 113.013 23.2818 112.97 23.3314C112.927 23.381 112.868 23.4134 112.803 23.4224C112.738 23.4315 112.672 23.4166 112.617 23.3805C112.562 23.3445 112.522 23.2897 112.504 23.2264C111.701 19.6446 110.469 14.4222 109.484 11.3627C108.425 8.06665 105.961 9.79102 105.961 12.2002C105.961 17.3684 106.838 28.2666 106.838 28.2666L137.895 57.3495Z"
          fill="#274D76"/>
    <path d="M220.649 86.7853L229.518 102.058L208.824 168.57C206.882 175.315 199.161 179.523 192.238 178.37L165.601 175.414C162.182 174.842 160.955 176.596 162.152 179.848L173.647 232.589C174.109 233.842 174.305 235.178 174.221 236.511C174.137 237.844 173.777 239.145 173.162 240.33C172.547 241.516 171.691 242.56 170.65 243.396C169.609 244.233 168.404 244.843 167.114 245.187L127.479 255.78C126.577 256.02 125.634 256.06 124.716 255.897C123.797 255.735 122.925 255.374 122.161 254.839C121.396 254.305 120.758 253.61 120.29 252.803C119.822 251.996 119.536 251.097 119.452 250.168L117.176 236.56C117.082 235.521 116.781 231.348 119.146 229.663C122.596 227.199 128.016 223.751 128.016 223.751C129.844 222.765 130.031 219.839 129.494 217.838L114.451 159.288C111.987 150.124 117.693 143.03 127.05 141.473C138.875 139.502 158.585 135.068 158.585 135.068L167.025 80.0109C167.562 77.8898 168.816 76.0196 170.574 74.7168C172.333 73.414 174.487 72.7588 176.673 72.8622L189.627 73.4829L220.649 86.7853Z"
          fill="#FFF3A1"/>
    <path d="M215.536 72.2499C218.227 60.8493 211.166 49.4259 199.764 46.7351C188.362 44.0443 176.938 51.105 174.247 62.5057C171.556 73.9064 178.617 85.3298 190.019 88.0206C201.421 90.7114 212.845 83.6506 215.536 72.2499Z"
          fill="#FFF3A1"/>
    <path d="M2.28087 67.1276L72.7709 3.38457C76.4172 0.0885357 81.7387 0.349664 86.0747 2.69975C94.7911 7.45412 109.726 15.9529 123.074 30.3983C134.269 42.533 152.864 61.787 155.062 78.0947C155.182 79.0175 155.091 79.9556 154.796 80.8381C154.501 81.7206 154.009 82.5244 153.357 83.189C131.844 105.453 88.1244 146.449 83.2415 150.627C71.6722 160.481 41.6649 138.221 24.5769 118.352C17.4373 110.055 -6.64741 75.5722 2.28087 67.1276Z"
          fill="white"/>
    <path d="M231.933 90.6799C225.385 84.2405 214.195 84.6297 207.296 90.5419L182.842 112.806C182.199 113.333 181.375 113.588 180.547 113.516C179.718 113.444 178.951 113.052 178.408 112.422L161.063 92.1776C158.277 88.911 156.591 84.8495 156.245 80.5701L155.619 72.8497C155.575 72.3284 155.447 71.8176 155.239 71.3372L152.081 63.208C151.978 62.9605 151.81 62.7456 151.595 62.5862C151.379 62.4269 151.125 62.3291 150.858 62.3033C150.591 62.2774 150.323 62.3246 150.081 62.4397C149.839 62.5548 149.632 62.7335 149.484 62.9567C148.597 64.3214 148.114 66.3759 148.114 68.4156C148.114 72.3571 149.041 76.6138 147.563 76.6138C145.592 76.6138 143.246 72.7413 142.251 69.1054C141.103 64.9274 140.531 61.587 138.501 59.7444C138.262 59.5554 137.977 59.4326 137.676 59.3883C137.374 59.344 137.066 59.3798 136.782 59.4921C136.499 59.6044 136.25 59.7892 136.06 60.0281C135.871 60.2669 135.747 60.5514 135.703 60.8529C135.116 64.0702 135.791 70.1154 135.845 73.5494C135.845 74.5347 134.973 74.5347 134.707 73.3178C133.875 69.5882 131.598 58.2565 131.598 58.2565C131.522 57.9296 131.343 57.6353 131.089 57.416C130.835 57.1968 130.517 57.0639 130.183 57.0365C129.848 57.0091 129.513 57.0887 129.226 57.2636C128.94 57.4386 128.716 57.7 128.588 58.0102C126.878 62.0847 127.518 70.948 127.829 74.2391C127.832 74.2982 127.815 74.3567 127.781 74.4052C127.747 74.4538 127.698 74.4897 127.642 74.5072C127.585 74.5247 127.524 74.5229 127.469 74.502C127.414 74.4811 127.367 74.4423 127.336 74.3918C125.92 71.7187 124.806 68.8964 124.015 65.9768C123.975 65.7773 123.874 65.5951 123.726 65.4552C123.579 65.3152 123.391 65.2245 123.19 65.1953C122.989 65.1662 122.783 65.2 122.602 65.2923C122.42 65.3846 122.272 65.5308 122.177 65.7108C120.871 68.056 121.541 73.6725 121.886 75.9733C121.896 76.0203 121.889 76.0693 121.865 76.1111C121.842 76.1529 121.804 76.1847 121.758 76.2004C121.713 76.2162 121.663 76.2148 121.619 76.1965C121.574 76.1783 121.538 76.1445 121.517 76.1014C120.96 75.1202 120.481 74.0973 120.083 73.0419C119.516 71.5934 118.299 72.4211 118.196 73.3473C117.69 77.7762 117.96 82.2594 118.994 86.5955C119.487 88.65 121.201 94.8135 128.952 104.081L170.342 149.9C177.732 159.261 187.198 156.798 192.514 152.856C205.818 143.003 230.376 118.728 230.376 118.728C239.733 110.85 237.777 96.4294 231.933 90.6799Z"
          fill="#FFF3A1"/>
    <path d="M46.8441 105.166C22.1139 78.7289 9.21421 71.1072 2.92204 70.4026C2.59406 70.364 2.26162 70.3959 1.94693 70.496C1.63225 70.5962 1.34257 70.7623 1.09724 70.9834C0.851913 71.2044 0.656595 71.4753 0.524333 71.7779C0.39207 72.0804 0.325915 72.4078 0.330281 72.7379C0.404191 85.6166 18.5613 111.339 24.5776 118.35C38.3445 134.362 60.5026 151.931 74.644 152.991C74.8983 153.008 75.1533 152.968 75.3907 152.876C75.6281 152.783 75.8422 152.639 76.0177 152.454C76.1932 152.269 76.3258 152.048 76.406 151.806C76.4862 151.564 76.5121 151.307 76.4818 151.054C75.6196 143.492 69.6477 129.539 46.8441 105.166Z"
          fill="#F2BDBA"/>
    <path d="M114.525 48.4692L104.103 39.7339C103.295 39.0559 102.357 38.5508 101.346 38.2499C100.334 37.9491 99.2724 37.8589 98.225 37.9849C89.7747 38.9998 67.6757 41.9658 60.2848 46.0402C57.5402 47.5478 51.593 54.1251 51.593 54.1251C50.5589 55.2023 49.9814 56.6375 49.9814 58.1306C49.9814 59.6237 50.5589 61.059 51.593 62.1361L65.1529 77.1186C65.6051 77.6187 66.2323 77.9257 66.9046 77.9762C67.5769 78.0266 68.2429 77.8166 68.7646 77.3895L79.6047 68.5213C79.8828 68.2933 80.1111 68.0107 80.2757 67.6911C80.4402 67.3714 80.5375 67.0214 80.5615 66.6627C80.5855 66.3039 80.5358 65.9441 80.4153 65.6053C80.2948 65.2666 80.1061 64.9561 79.8609 64.6931L77.6781 62.3578C77.4774 62.1736 77.3314 61.9375 77.2565 61.6755C77.1815 61.4135 77.1804 61.136 77.2533 60.8734C77.3262 60.6109 77.4703 60.3736 77.6696 60.1878C77.8689 60.002 78.1157 59.8749 78.3827 59.8205L113.628 52.2529C114.023 52.1642 114.386 51.966 114.675 51.681C114.963 51.3961 115.165 51.0358 115.259 50.6413C115.352 50.2468 115.333 49.834 115.203 49.4499C115.073 49.0659 114.838 48.726 114.525 48.4692V48.4692ZM98.2645 63.7423C96.5744 62.5401 94.4655 62.4367 92.8444 63.7423L60.0975 90.7855C58.1266 92.4114 58.0034 96.3676 59.6738 98.3039C60.9696 99.7819 63.5811 102.802 64.8474 104.334C67.1879 107.177 71.0312 107.29 72.9184 105.546L81.7875 97.4959C82.1718 97.1419 82.6809 96.9551 83.2029 96.9763C83.725 96.9976 84.2172 97.2252 84.5714 97.6092L86.4389 99.6193C87.0757 100.286 87.9494 100.676 88.8713 100.705C89.7931 100.733 90.6893 100.398 91.3662 99.772L101.147 90.7757C101.583 90.3695 101.93 89.878 102.168 89.3317C102.406 88.7854 102.528 88.1961 102.528 87.6003C102.528 87.0046 102.406 86.4153 102.168 85.869C101.93 85.3227 101.583 84.8312 101.147 84.425L100.245 83.5825C100.043 83.3979 99.8811 83.173 99.7704 82.9223C99.6598 82.6717 99.6027 82.4007 99.6027 82.1267C99.6027 81.8527 99.6598 81.5817 99.7704 81.331C99.8811 81.0803 100.043 80.8555 100.245 80.6708L104.744 76.5766C106.419 75.0493 107.015 71.6252 104.902 69.6298C104.931 69.6298 100.472 65.3041 98.2743 63.7472L98.2645 63.7423Z"
          fill="#3834A5"/>
    <path d="M4.54227 75.5022C7.36069 71.9352 32.2633 95.1651 40.7038 103.767C55.1506 118.494 76.1311 146.995 71.0757 148.325C67.9272 149.153 48.4495 138.245 27.8879 115.005C12.2437 97.3427 2.80293 77.7193 4.54227 75.5022Z"
          fill="black"/>
    <path d="M205.36 132.765H204.985C204.482 132.718 203.994 132.569 203.549 132.329C203.105 132.089 202.713 131.761 202.399 131.366L191.775 118.191C191.168 117.436 190.873 116.477 190.949 115.51C191.026 114.544 191.47 113.643 192.189 112.994L203.921 102.386C204.3 102.044 204.744 101.781 205.226 101.614C205.709 101.448 206.22 101.38 206.729 101.415C207.238 101.451 207.735 101.589 208.19 101.821C208.645 102.053 209.048 102.374 209.376 102.765L220.61 116.152C221.254 116.923 221.566 117.917 221.479 118.917C221.393 119.918 220.914 120.844 220.147 121.492L207.794 131.888C207.112 132.459 206.25 132.77 205.36 132.765V132.765ZM192.849 113.713C192.318 114.193 191.99 114.859 191.933 115.574C191.876 116.288 192.095 116.997 192.544 117.556L203.143 130.735C203.378 131.027 203.669 131.269 203.999 131.447C204.329 131.624 204.691 131.734 205.064 131.77C205.436 131.807 205.812 131.769 206.168 131.657C206.525 131.545 206.855 131.362 207.139 131.119L219.491 120.724C220.057 120.244 220.41 119.561 220.473 118.823C220.537 118.085 220.306 117.351 219.831 116.782L208.597 103.391C208.353 103.101 208.053 102.864 207.714 102.694C207.375 102.525 207.005 102.427 206.626 102.406C206.249 102.379 205.87 102.429 205.513 102.553C205.156 102.677 204.827 102.871 204.547 103.125L192.849 113.713Z"
          fill="black"/>
    <path d="M147.355 109.657L146.582 109.041L152.115 102.104C152.243 101.947 152.313 101.751 152.313 101.549C152.313 101.346 152.243 101.15 152.114 100.994C151.986 100.837 151.808 100.73 151.61 100.69C151.411 100.65 151.205 100.679 151.026 100.774L144.773 103.991C144.39 104.189 143.95 104.247 143.528 104.156C143.106 104.065 142.729 103.831 142.461 103.493C142.193 103.155 142.051 102.735 142.058 102.304C142.065 101.872 142.222 101.457 142.502 101.129L148.06 94.5612C148.185 94.4041 148.252 94.2089 148.251 94.0082C148.249 93.8074 148.179 93.6132 148.051 93.4581C147.924 93.303 147.747 93.1963 147.55 93.1559C147.354 93.1154 147.149 93.1436 146.971 93.2358L130.859 101.419L130.41 100.537L146.523 92.3392C146.906 92.1401 147.346 92.08 147.769 92.1691C148.192 92.2583 148.57 92.4912 148.84 92.8282C149.111 93.1651 149.256 93.5853 149.251 94.0172C149.246 94.4491 149.091 94.8659 148.814 95.1967L143.251 101.759C143.122 101.915 143.051 102.11 143.05 102.312C143.048 102.514 143.116 102.711 143.241 102.869C143.367 103.027 143.543 103.137 143.741 103.181C143.938 103.225 144.144 103.199 144.325 103.109L150.573 99.892C150.953 99.6965 151.388 99.6371 151.806 99.7237C152.225 99.8103 152.6 100.038 152.871 100.368C153.142 100.698 153.292 101.111 153.295 101.538C153.298 101.966 153.155 102.381 152.889 102.715L147.355 109.657Z"
          fill="black"/>
    <path d="M174.194 119.889L167.001 139.281L167.925 139.624L175.118 120.232L174.194 119.889Z" fill="black"/>
    <path d="M185.453 124.083L184.523 124.41L192.819 147.977L193.748 147.65L185.453 124.083Z" fill="black"/>
    <path d="M185.101 140.391L184.126 140.535L185.837 152.121L186.812 151.977L185.101 140.391Z" fill="black"/>
    <path d="M173.978 135.909L172.207 145.191L173.175 145.376L174.946 136.094L173.978 135.909Z" fill="black"/>
    <path d="M152.53 179.794H152.475L124.306 176.567L124.414 175.582L152.559 178.804C152.83 178.8 153.092 178.707 153.305 178.54C153.518 178.373 153.67 178.142 153.74 177.88C153.809 177.618 153.791 177.341 153.688 177.091C153.585 176.841 153.403 176.631 153.17 176.493L120.748 161.22C120.279 160.956 119.922 160.532 119.742 160.024C119.562 159.517 119.571 158.962 119.769 158.461C119.967 157.961 120.339 157.549 120.817 157.302C121.295 157.054 121.847 156.988 122.37 157.116L148.085 162.836C148.361 162.903 148.65 162.873 148.907 162.752C149.163 162.631 149.37 162.426 149.494 162.172C149.618 161.917 149.65 161.627 149.587 161.351C149.523 161.075 149.367 160.829 149.145 160.654L127.602 150.007L128.041 149.125L149.696 159.836C150.098 160.144 150.382 160.58 150.503 161.072C150.623 161.564 150.573 162.082 150.359 162.541C150.146 163 149.782 163.373 149.328 163.597C148.875 163.822 148.358 163.886 147.863 163.777L122.148 158.057C121.859 157.985 121.553 158.019 121.287 158.154C121.021 158.288 120.813 158.513 120.699 158.789C120.585 159.064 120.575 159.371 120.669 159.654C120.763 159.937 120.956 160.176 121.212 160.329L153.633 175.631C154.061 175.874 154.396 176.251 154.586 176.704C154.777 177.157 154.812 177.661 154.687 178.136C154.561 178.611 154.282 179.031 153.893 179.331C153.504 179.631 153.026 179.794 152.535 179.794H152.53Z"
          fill="black"/>
    <path d="M90.8252 225.767H89.8397V221.043C89.8395 220.727 89.757 220.416 89.6003 220.142C89.4436 219.868 89.2181 219.639 88.946 219.478C88.674 219.318 88.3648 219.231 88.0489 219.226C87.733 219.221 87.4212 219.299 87.1445 219.451L85.0652 220.599C84.6378 220.834 84.1565 220.953 83.6689 220.945C83.1813 220.937 82.7043 220.802 82.2848 220.554C81.8654 220.305 81.5181 219.951 81.2773 219.527C81.0364 219.103 80.9103 218.623 80.9114 218.136V216.505C80.911 216.206 80.8367 215.912 80.6952 215.648C80.5538 215.385 80.3495 215.16 80.1004 214.994C79.8514 214.829 79.5654 214.727 79.2676 214.698C78.9699 214.67 78.6697 214.715 78.3936 214.83L75.7181 215.948C75.2925 216.126 74.8296 216.196 74.3706 216.151C73.9116 216.107 73.4705 215.951 73.0865 215.695C72.7025 215.44 72.3875 215.094 72.1692 214.688C71.951 214.282 71.8363 213.828 71.8354 213.367V212.825C71.8359 212.527 71.7629 212.233 71.6229 211.97C71.4829 211.707 71.2802 211.482 71.0327 211.316C70.7852 211.15 70.5005 211.047 70.2039 211.018C69.9074 210.988 69.608 211.031 69.3323 211.145L66.775 212.194C66.3492 212.369 65.8869 212.437 65.4289 212.39C64.9709 212.344 64.5314 212.185 64.1494 211.928C63.7673 211.672 63.4545 211.325 63.2387 210.918C63.0228 210.511 62.9106 210.058 62.912 209.598C62.9114 209.298 62.8366 209.003 62.6943 208.739C62.5519 208.475 62.3465 208.25 62.0962 208.085C61.846 207.919 61.5587 207.818 61.26 207.791C60.9613 207.764 60.6604 207.81 60.3843 207.927L58.4133 208.77C58.0353 208.929 57.6269 209.003 57.217 208.987C56.8071 208.972 56.4056 208.866 56.041 208.678C55.6764 208.49 55.3574 208.224 55.1067 207.9C54.8559 207.575 54.6795 207.2 54.5898 206.799L54.3335 205.676C54.2741 205.415 54.1577 205.17 53.9927 204.959C53.8277 204.748 53.6181 204.577 53.379 204.456C53.1398 204.336 52.877 204.269 52.6094 204.262C52.3417 204.255 52.0757 204.307 51.8305 204.415L48.2927 205.967L47.8936 205.065L51.4363 203.513C51.8141 203.348 52.2238 203.267 52.6362 203.278C53.0485 203.289 53.4534 203.391 53.8218 203.577C54.1903 203.762 54.5133 204.026 54.7679 204.351C55.0224 204.675 55.2022 205.052 55.2944 205.454L55.5506 206.582C55.6099 206.839 55.7245 207.08 55.8865 207.288C56.0485 207.497 56.2539 207.667 56.4885 207.787C56.723 207.908 56.9811 207.976 57.2446 207.986C57.5081 207.997 57.7708 207.95 58.0142 207.849L59.9852 207.011C60.4109 206.832 60.8743 206.76 61.3343 206.803C61.7943 206.846 62.2366 207.002 62.6218 207.257C63.007 207.512 63.3232 207.858 63.5423 208.265C63.7614 208.671 63.8767 209.126 63.8777 209.588C63.8764 209.886 63.9488 210.181 64.0884 210.444C64.2281 210.708 64.4307 210.933 64.6783 211.1C64.926 211.267 65.2109 211.37 65.5079 211.4C65.8049 211.43 66.1047 211.386 66.3808 211.273L68.9381 210.223C69.3635 210.049 69.8254 209.981 70.283 210.027C70.7406 210.073 71.1797 210.232 71.5617 210.488C71.9436 210.744 72.2565 211.09 72.4727 211.496C72.6888 211.902 72.8016 212.355 72.8011 212.815V213.357C72.8016 213.656 72.8758 213.95 73.0173 214.214C73.1588 214.477 73.3631 214.702 73.6121 214.868C73.8611 215.033 74.1472 215.135 74.4449 215.164C74.7427 215.192 75.0429 215.147 75.3189 215.032L77.9945 213.914C78.42 213.735 78.8832 213.664 79.3427 213.708C79.8022 213.751 80.2439 213.908 80.6282 214.163C81.0126 214.419 81.3277 214.766 81.5457 215.172C81.7636 215.579 81.8775 216.034 81.8772 216.495V218.126C81.8779 218.441 81.9605 218.751 82.1169 219.024C82.2734 219.298 82.4983 219.526 82.7696 219.687C83.041 219.847 83.3494 219.935 83.6646 219.94C83.9797 219.945 84.2909 219.869 84.5675 219.717L86.6518 218.569C87.0792 218.335 87.5604 218.215 88.048 218.223C88.5356 218.231 89.0127 218.366 89.4321 218.615C89.8515 218.864 90.1988 219.218 90.4397 219.642C90.6805 220.066 90.8066 220.545 90.8055 221.033L90.8252 225.767Z"
          fill="black"/>
    <path d="M201.625 74.7167C197.072 82.1069 184.951 85.9794 179.048 78.0374C172.49 69.2135 177.161 50.4472 190.815 49.6442C193.964 49.4695 197.063 50.494 199.487 52.5116C205.715 57.6749 206.73 66.4347 201.625 74.7167Z"
          fill="black"/>
    <path d="M186.059 64.9396C184.384 70.1177 182.462 75.8427 180.053 72.9063C178.574 71.0784 177.643 66.6837 178.712 62.5058C179.615 59.2667 181.562 56.4161 184.251 54.3963C185.463 53.539 186.714 53.3419 187.67 53.8691C190.173 55.1944 187.936 59.1309 186.059 64.9396Z"
          fill="#74BAAB"/>
    <path d="M180.812 114.029C180.28 114.03 179.755 113.916 179.271 113.694C178.788 113.472 178.359 113.147 178.014 112.743L169.814 103.16L170.563 102.52L178.762 112.102C179.223 112.639 179.876 112.974 180.581 113.035C181.286 113.096 181.986 112.878 182.532 112.427L206.971 90.1779C208.325 89.0183 209.836 88.0562 211.46 87.3203L211.869 88.217C210.333 88.9122 208.903 89.8212 207.622 90.9169L183.177 113.171C182.514 113.726 181.677 114.029 180.812 114.029V114.029Z"
          fill="black"/>
    <path d="M182.448 156.888C178.23 156.888 173.796 155.07 169.957 150.212L160.517 139.763L161.246 139.103L170.711 149.577C177.639 158.352 186.631 156.612 192.224 152.469C196.698 149.153 202.926 143.852 210.736 136.703L211.401 137.432C203.567 144.596 197.314 149.922 192.81 153.257C189.827 155.533 186.199 156.804 182.448 156.888V156.888Z"
          fill="black"/>
    <path d="M121.088 76.3544C120.514 75.3536 120.019 74.3092 119.609 73.2308L120.526 72.8711C120.914 73.9034 121.384 74.9034 121.93 75.8617L121.088 76.3544Z"
          fill="black"/>
    <path d="M126.893 74.6289C125.465 71.9317 124.339 69.0847 123.537 66.14L124.488 65.8789C125.269 68.7529 126.365 71.532 127.755 74.1658L126.893 74.6289Z"
          fill="black"/>
    <path d="M194.904 89.0938C190.997 89.0973 187.161 88.0464 183.802 86.0521C180.442 84.0577 177.683 81.1937 175.815 77.7622L176.683 77.2695C178.463 80.551 181.097 83.2905 184.306 85.1985C187.515 87.1064 191.18 88.1118 194.914 88.1085L194.904 89.0938Z"
          fill="black"/>
</svg>
