<svg width="141" height="101" viewBox="0 0 141 101" fill="none" xmlns="http://www.w3.org/2000/svg">
    <path d="M125.705 83.9043C123.822 76.7309 121.723 67.4931 120.62 64.3498C120.557 64.1513 120.453 63.9683 120.314 63.8128C119.329 63.1526 113.505 60.3641 106.774 61.4923C104.69 61.8421 97.5402 61.177 94.6725 63.3497C93.7856 64.0197 93.4456 65.1529 93.3717 66.2614C92.9726 72.2376 91.9773 90.7033 92.1399 96.9357C92.1515 97.4816 92.3441 98.0081 92.6874 98.4326C93.0308 98.857 93.5055 99.1554 94.0369 99.2809C106.163 101.744 120.265 100.611 126.557 95.8666C126.898 95.6092 127.167 95.2692 127.34 94.8786C127.512 94.488 127.582 94.0599 127.543 93.6348C127.195 90.3468 126.58 87.0925 125.705 83.9043V83.9043Z"
          fill="white"/>
    <path d="M56.4176 36.0468L36.3782 29.7898C35.875 29.6306 35.4444 29.2983 35.1629 28.8518C34.8815 28.4054 34.7674 27.8736 34.8409 27.351L37.955 5.7026C38.0591 4.96907 37.8681 4.22415 37.4239 3.63122C36.9796 3.03828 36.3183 2.64571 35.5849 2.53959L23.0696 0.627981C22.4881 0.539299 21.2218 0.977787 21.2218 2.66276C21.2055 2.98875 21.2542 3.31472 21.365 3.62174C21.4758 3.92876 21.6466 4.21071 21.8673 4.45119L24.1289 7.17571C24.3377 7.42703 24.4898 7.72041 24.5748 8.03586C24.6599 8.3513 24.6758 8.68137 24.6217 9.00355L21.9511 25.5576L31.1109 45.0629L53.3676 47.4474L56.4176 36.0468Z"
          fill="#274D76"/>
    <path d="M16.8363 8.12616L34.2445 35.5143C34.4762 35.8848 34.7786 36.2061 35.1346 36.4597C35.4905 36.7133 35.8929 36.8943 36.3189 36.9923L40.2213 37.8545C41.5151 38.1451 42.8712 37.9188 44.0006 37.2239L45.5083 36.3026C46.9857 35.3969 48.6423 34.823 50.3634 34.6205C52.0845 34.4181 53.829 34.5919 55.4763 35.13L79.3442 42.8946L72.3572 64.6662L48.8047 58.9215C46.7631 58.4244 44.7512 57.8125 42.7786 57.0888C39.8222 56.0098 35.5404 54.3741 32.924 53.0882C26.1785 49.7725 23.9661 47.176 22.8624 45.1314C19.3689 38.5837 10.7412 23.7441 9.64735 21.9754C8.23814 19.6992 5.12901 19.512 3.47836 19.0735C3.00315 18.9961 2.55473 18.8016 2.17362 18.5074C1.79251 18.2132 1.49073 17.8286 1.29556 17.3885L1.08369 16.8959C0.964929 16.6089 0.949115 16.2898 1.03893 15.9925C1.12874 15.6953 1.31865 15.4383 1.57642 15.2651L13.0176 7.27874C13.3192 7.06831 13.6611 6.92278 14.0218 6.85136C14.3825 6.77995 14.7541 6.7842 15.1131 6.86386C15.4721 6.94352 15.8106 7.09685 16.1072 7.31414C16.4038 7.53142 16.6521 7.80793 16.8363 8.12616V8.12616Z"
          fill="#FFF3A1"/>
    <path d="M90.0165 57.7969H111.1C112.815 57.7969 114.594 58.2896 115.501 59.339C116.043 59.9597 117.008 61.3097 117.521 61.9452C117.876 62.3985 117.747 62.9897 117.23 62.8666L114.678 61.9206L115.131 63.4873C115.441 64.3347 114.668 64.719 114.013 64.3889L111.46 63.1868C111.474 63.3484 111.444 63.5107 111.374 63.6569C111.303 63.803 111.195 63.9276 111.06 64.0177C110.925 64.1078 110.769 64.16 110.607 64.169C110.445 64.1779 110.284 64.1433 110.14 64.0687C109.014 63.4393 107.933 62.7348 106.902 61.96C106.499 61.6879 106.019 61.5532 105.533 61.5757C101.187 61.7925 98.1416 62.3345 95.4661 63.4184C93.4952 64.2214 93.4508 66.271 93.4164 66.9065C93.3572 67.9904 91.9037 71.2175 91.9037 71.2175L78.1762 68.3944L75.752 59.2601L90.0165 57.7969Z"
          fill="#274D76"/>
    <path d="M82.0049 60.2326C87.9809 60.2326 92.8253 55.1857 92.8253 48.9601C92.8253 42.7344 87.9809 37.6875 82.0049 37.6875C76.029 37.6875 71.1846 42.7344 71.1846 48.9601C71.1846 55.1857 76.029 60.2326 82.0049 60.2326Z"
          fill="#FFF3A1"/>
    <path d="M86.7353 75.5799C86.7353 75.5799 80.0785 87.3353 79.0782 94.3018C79.0074 94.8354 79.0435 95.3778 79.1847 95.8972C79.3259 96.4167 79.5692 96.9027 79.9004 97.3271C80.2316 97.7514 80.6442 98.1054 81.1138 98.3685C81.5835 98.6315 82.1009 98.7983 82.6358 98.8591C85.8639 99.1692 89.1144 99.1692 92.3426 98.8591C91.6725 96.7652 93.1999 78.1665 93.8503 70.6285C93.8689 70.4081 93.8179 70.1874 93.7047 69.9974C93.5914 69.8074 93.4216 69.6577 93.2189 69.5691C93.0162 69.4805 92.7909 69.4576 92.5745 69.5036C92.3582 69.5496 92.1616 69.6621 92.0124 69.8254L86.7353 75.5799Z"
          fill="white"/>
    <path d="M109.435 69.9778C110.859 72.9339 116.23 84.2656 117.383 88.8032C117.415 88.9331 117.416 89.0688 117.385 89.1992C117.355 89.3296 117.295 89.4511 117.209 89.5538C117.123 89.6564 117.014 89.7374 116.891 89.7902C116.768 89.843 116.634 89.866 116.501 89.8575C112.32 89.6431 108.128 89.9159 104.01 90.6704C103.883 90.6919 103.752 90.684 103.628 90.6472C103.504 90.6105 103.39 90.5459 103.295 90.4585C103.2 90.371 103.126 90.2629 103.079 90.1426C103.032 90.0222 103.014 89.8927 103.024 89.7639L104.503 71.6381C104.516 71.4814 104.572 71.3314 104.665 71.2045C104.758 71.0776 104.884 70.9788 105.03 70.9188L108.366 69.559C108.564 69.4842 108.783 69.4856 108.981 69.563C109.178 69.6403 109.34 69.7881 109.435 69.9778V69.9778Z"
          fill="white"/>
    <path d="M116.146 85.1418C113.712 78.7715 109.085 69.2578 109.085 69.2578L107.996 69.7012L113.16 89.7681C114.641 89.763 116.121 89.8353 117.595 89.9849C117.526 89.034 116.959 87.2604 116.151 85.1418"
          fill="#93B4F6"/>
    <path d="M117.59 90.0061C117.59 89.9272 113.619 86.7002 113.619 86.7002C113.287 86.447 112.888 86.2954 112.472 86.264C112.056 86.2325 111.639 86.3224 111.273 86.5228L103.513 90.7746C105.39 90.4002 111.49 89.4001 117.59 90.0061Z"
          fill="#274D76"/>
    <path d="M78.3588 52.2731C78.1792 54.1347 78.5729 56.0067 79.4872 57.6383C79.7749 58.1526 80.1935 58.5817 80.7006 58.8819C81.2077 59.1822 81.7853 59.343 82.3746 59.3479V59.3479C87.7946 59.3479 92.1356 54.7956 92.1356 49.179V49.1445C92.1425 48.0146 91.7513 46.9183 91.0304 46.048C90.3096 45.1777 89.3053 44.589 88.1937 44.3853C87.4892 44.2647 86.7717 44.2382 86.0602 44.3064C82.0001 44.6759 78.7235 48.0607 78.3588 52.2731Z"
          fill="black"/>
    <path d="M113.244 71.4099L110.918 71.6858C110.877 71.6926 110.835 71.6852 110.799 71.6649C110.763 71.6446 110.735 71.6126 110.72 71.5741C110.704 71.5356 110.702 71.493 110.714 71.4533C110.726 71.4136 110.751 71.3792 110.785 71.3557L112.756 69.8776C112.92 69.7531 113.04 69.579 113.097 69.3812C113.154 69.1834 113.145 68.9725 113.073 68.7798C113 68.5872 112.867 68.4231 112.694 68.312C112.521 68.2008 112.316 68.1486 112.111 68.1631C109.997 68.3306 107.272 68.5523 105.321 68.7642C105.252 68.773 105.181 68.7573 105.122 68.7198C105.063 68.6823 105.019 68.6254 104.997 68.5588C104.976 68.4923 104.978 68.4203 105.004 68.3552C105.03 68.2902 105.077 68.2362 105.139 68.2025C106.011 67.7099 106.469 67.4684 107.381 66.956C108.676 66.2269 107.381 65.1972 105.902 65.2563C103.128 65.3647 100.364 67.0349 98.2602 67.0349C94.4612 67.0349 83.9266 66.5422 83.9266 66.5422C83.5157 66.5269 83.1142 66.415 82.7547 66.2156C82.3951 66.0161 82.0876 65.7347 81.8571 65.3942L73.3033 52.7422C72.1838 51.2571 70.5259 50.2709 68.6865 49.996C66.847 49.721 64.9731 50.1792 63.4682 51.272C61.9632 52.3647 60.9476 54.0046 60.6398 55.8387C60.3321 57.6728 60.7569 59.5543 61.8227 61.0784L74.3479 77.125C74.9187 77.8619 75.6444 78.4645 76.4737 78.8901C77.3029 79.3158 78.2156 79.5542 79.1471 79.5884L106.415 79.1696C109.667 79.1696 111.953 76.2135 112.244 74.701C112.956 74.2248 113.583 73.6338 114.101 72.952C114.226 72.8061 114.304 72.6254 114.323 72.4343C114.342 72.2432 114.302 72.0507 114.209 71.8829C114.116 71.715 113.973 71.5797 113.801 71.4951C113.628 71.4106 113.434 71.3808 113.244 71.4099Z"
          fill="#FFF3A1"/>
    <path d="M92.1261 95.6484C90.1256 95.6484 88.0068 95.7519 85.893 95.9194C81.1381 96.2988 80.473 97.7965 80.9657 98.2547C81.428 98.6735 82.0146 98.9296 82.6361 98.9839C86.1235 99.3005 89.6344 99.251 93.1115 98.8361C92.1261 97.7719 92.1556 97.2644 92.1261 95.6484Z"
          fill="black"/>
    <path d="M125.596 66.3159C124.172 64.5521 123.364 64.7689 120.758 64.7344C121.862 68.5477 123.783 76.5834 125.685 83.9046C127.587 91.2258 127.631 94.9554 127.631 94.9554C130.046 94.6303 131.992 94.2755 136.717 93.4774C140.58 92.8271 140.925 89.6345 138.925 86.6784L125.596 66.3159Z"
          fill="white"/>
    <path d="M125.744 96.432C126.02 95.7324 125.567 95.0328 124.414 94.4613C122.113 93.3182 117.609 92.4216 108.829 92.9093C100.738 93.3626 96.6388 95.3727 94.5742 97.1267C93.4656 98.0726 93.5395 98.8067 94.52 99.393C106.681 102.349 119.255 100.703 125.744 96.432Z"
          fill="#F2BDBA"/>
    <path d="M137.225 93.5698C138.21 93.3186 138.353 92.2692 137.845 91.9095C137.598 91.7274 137.338 91.5627 137.067 91.4168C134.667 90.1851 130.834 90.1999 127.163 90.6384C127.631 93.4861 127.715 94.1758 127.193 95.1366C130.174 94.9543 136.934 93.6437 137.225 93.5698Z"
          fill="black"/>
    <path d="M70.8783 67.832C70.7766 67.8393 70.6745 67.8393 70.5728 67.832C70.2727 67.7849 69.9859 67.675 69.7311 67.5094C69.4764 67.3439 69.2595 67.1264 69.0946 66.8713L66.5078 62.9298C66.1983 62.4517 66.0884 61.8715 66.2017 61.3134C66.315 60.7553 66.6424 60.2638 67.1138 59.9442L70.5629 57.6384C71.0379 57.3218 71.6184 57.2047 72.179 57.3126C72.7396 57.4205 73.2352 57.7446 73.5587 58.2149L75.9436 61.7129C76.246 62.1536 76.3741 62.6908 76.3031 63.2205C76.2321 63.7503 75.9671 64.2348 75.5592 64.5803L72.2826 67.3393C71.8884 67.666 71.3902 67.8407 70.8783 67.832V67.832ZM71.7356 58.2297C71.5041 58.2294 71.2777 58.298 71.0852 58.4267L67.6361 60.7374C67.3782 60.9092 67.1984 61.1756 67.1357 61.4791C67.073 61.7825 67.1324 62.0984 67.3011 62.3583L69.8879 66.2998C69.98 66.4393 70.1004 66.5579 70.2413 66.6479C70.3822 66.7378 70.5405 66.7972 70.7058 66.822C70.8722 66.8466 71.0419 66.8351 71.2034 66.7884C71.365 66.7416 71.5145 66.6607 71.642 66.551L74.8891 63.7871C75.1108 63.5975 75.2546 63.3326 75.2928 63.0434C75.331 62.7542 75.2609 62.461 75.0961 62.2204L72.7113 58.7273C72.6011 58.5715 72.4548 58.4448 72.2848 58.3582C72.1149 58.2715 71.9264 58.2274 71.7356 58.2297V58.2297Z"
          fill="black"/>
    <path d="M80.2359 68.182L74.8418 73.8359L75.5548 74.5161L80.949 68.8622L80.2359 68.182Z" fill="black"/>
    <path d="M78.5699 73.4109L77.1318 76.3164L78.0151 76.7535L79.4531 73.8479L78.5699 73.4109Z" fill="black"/>
    <path d="M82.5278 68.0601L80.5176 77.6562L81.4821 77.8583L83.4923 68.2622L82.5278 68.0601Z" fill="black"/>
    <path d="M93.7371 75.8482H93.6682C93.3502 75.8356 93.0437 75.7259 92.79 75.5339C92.5363 75.3418 92.3475 75.0767 92.2491 74.7741L91.377 72.1235L92.3082 71.8131L93.1853 74.4637C93.2213 74.5756 93.2906 74.6737 93.384 74.745C93.4774 74.8164 93.5903 74.8575 93.7077 74.8628C93.8251 74.8682 93.9413 74.8375 94.0408 74.775C94.1403 74.7125 94.2183 74.6211 94.2644 74.513L95.1168 72.5423C95.216 72.3042 95.3726 72.0944 95.5726 71.9316C95.7726 71.7688 96.0099 71.6581 96.2631 71.6093C96.5164 71.5605 96.7778 71.5752 97.024 71.652C97.2702 71.7288 97.4935 71.8654 97.6741 72.0496L100.251 74.6903C100.337 74.7836 100.452 74.8447 100.578 74.8635C100.703 74.8823 100.831 74.8577 100.941 74.7938C101.054 74.7353 101.144 74.64 101.196 74.5237C101.248 74.4073 101.259 74.2767 101.227 74.1533L100.039 69.0196L100.995 68.793L102.197 73.9218C102.276 74.2556 102.243 74.6059 102.103 74.919C101.963 75.2321 101.724 75.4907 101.423 75.6552C101.122 75.8196 100.776 75.8808 100.437 75.8293C100.098 75.7778 99.785 75.6166 99.5464 75.3702L96.9695 72.7245C96.9022 72.657 96.8194 72.607 96.7284 72.5786C96.6374 72.5503 96.5409 72.5446 96.4472 72.562C96.3535 72.5782 96.2656 72.6179 96.1915 72.6773C96.1173 72.7368 96.0595 72.814 96.0234 72.9019L95.171 74.8973C95.0524 75.1795 94.853 75.4204 94.5979 75.5895C94.3428 75.7587 94.0433 75.8487 93.7371 75.8482V75.8482Z"
          fill="black"/>
    <path d="M30.1977 36.3406L23.1416 38.7617L23.4615 39.6937L30.5175 37.2726L30.1977 36.3406Z" fill="black"/>
    <path d="M28.2527 39.4852L24.459 42.6445L25.0897 43.4017L28.8834 40.2423L28.2527 39.4852Z" fill="black"/>
    <path d="M31.0602 39.6833L28.1113 47.2695L29.0298 47.6265L31.9787 40.0403L31.0602 39.6833Z" fill="black"/>
    <path d="M4.64642 17.5809C4.53544 17.5816 4.42472 17.57 4.31629 17.5464L3.46387 17.3493L3.67081 16.3886L4.52324 16.5758C4.60113 16.593 4.68177 16.5935 4.75989 16.5774C4.83801 16.5613 4.91184 16.5288 4.97655 16.4822C5.04163 16.4381 5.09644 16.3806 5.13726 16.3134C5.17807 16.2462 5.20393 16.1711 5.21306 16.093L5.30668 15.4032C5.33487 15.186 5.40874 14.9772 5.52341 14.7906C5.63809 14.6039 5.79098 14.4437 5.97203 14.3204C6.15308 14.197 6.35819 14.1134 6.57387 14.075C6.78955 14.0367 7.01091 14.0444 7.2234 14.0976L8.9184 14.5164C9.00668 14.5379 9.09881 14.5381 9.18716 14.5168C9.27551 14.4956 9.35753 14.4537 9.42641 14.3944C9.4953 14.3352 9.54906 14.2604 9.58325 14.1762C9.61744 14.092 9.63107 14.0009 9.623 13.9104L9.53924 12.9645C9.51622 12.7192 9.55194 12.4719 9.64346 12.2431C9.73497 12.0144 9.87964 11.8107 10.0655 11.6489C10.2514 11.4871 10.4731 11.3719 10.7123 11.3128C10.9515 11.2537 11.2014 11.2524 11.4412 11.3091L12.5498 11.5653C12.6362 11.5842 12.7259 11.5825 12.8115 11.5602C12.8972 11.538 12.9763 11.4958 13.0426 11.4372C13.1136 11.378 13.1686 11.3017 13.2022 11.2156C13.2358 11.1294 13.247 11.0361 13.2347 10.9445C13.2086 10.6801 13.2505 10.4134 13.3566 10.1698C13.4627 9.92615 13.6294 9.71373 13.8407 9.55274C14.0521 9.39174 14.3012 9.28751 14.5643 9.24998C14.8273 9.21245 15.0956 9.24287 15.3436 9.33833L16.6198 9.83101L16.2749 10.7573L14.9987 10.2646C14.9087 10.228 14.8107 10.216 14.7145 10.2298C14.6184 10.2437 14.5277 10.2829 14.4518 10.3434C14.3755 10.3997 14.3147 10.4744 14.275 10.5606C14.2354 10.6467 14.2182 10.7415 14.2251 10.8361C14.2525 11.0828 14.2204 11.3325 14.1317 11.5644C14.0429 11.7962 13.9 12.0035 13.7148 12.1688C13.5297 12.3342 13.3076 12.4529 13.0673 12.515C12.8269 12.5772 12.5751 12.5809 12.333 12.526L11.2244 12.2649C11.1379 12.2471 11.0485 12.2494 10.9631 12.2716C10.8777 12.2938 10.7985 12.3353 10.7316 12.393C10.6616 12.453 10.6075 12.5293 10.5739 12.6153C10.5404 12.7012 10.5286 12.7941 10.5395 12.8856L10.6232 13.8316C10.6466 14.0787 10.6099 14.3277 10.5164 14.5575C10.4229 14.7874 10.2753 14.9913 10.0862 15.152C9.89784 15.3124 9.67419 15.4259 9.43353 15.4833C9.19288 15.5407 8.94206 15.5402 8.7016 15.4821L7.0066 15.0633C6.9287 15.0433 6.84741 15.0405 6.7683 15.055C6.6892 15.0694 6.61416 15.1008 6.54836 15.147C6.48063 15.1904 6.42339 15.2482 6.38078 15.3164C6.33817 15.3845 6.31126 15.4613 6.302 15.5412L6.20838 16.2309C6.15991 16.6088 5.97374 16.9554 5.68552 17.2045C5.39731 17.4536 5.02732 17.5876 4.64642 17.5809V17.5809Z"
          fill="black"/>
    <path d="M87.2874 50.6433C87.3218 48.8746 87.3908 46.9138 88.7656 47.6331C89.6081 48.0814 91.2292 51.6336 89.3716 53.8063C89.2073 53.9926 88.9973 54.1328 88.7623 54.2132C88.5273 54.2935 88.2753 54.3112 88.0314 54.2645C86.8291 54.0379 87.2282 52.6288 87.2874 50.6433Z"
          fill="#74BAAB"/>
    <path d="M122.739 96.6111C122.951 96.1529 122.572 95.7095 121.626 95.3597C119.739 94.6601 116.068 94.1674 108.953 94.6601C102.39 95.1134 99.0981 96.4978 97.4425 97.6852C96.5605 98.3208 96.6295 98.7987 97.4425 99.1632C107.356 100.843 117.541 99.5179 122.739 96.6111Z"
          fill="black"/>
    <path d="M75.895 57.4467L72.8894 53.0125C72.3599 52.3181 71.6979 51.7356 70.9417 51.2987C70.1855 50.8619 69.3502 50.5794 68.484 50.4676C67.6179 50.3558 66.7382 50.4169 65.8959 50.6474C65.0535 50.8779 64.2653 51.2732 63.5768 51.8104L62.9707 51.0369C63.7635 50.416 64.672 49.959 65.6431 49.6925C66.6143 49.4261 67.6288 49.3554 68.6275 49.4847C69.6262 49.614 70.5892 49.9407 71.4605 50.4457C72.3318 50.9507 73.0938 51.6239 73.7024 52.4263L76.7228 56.8949L75.895 57.4467Z"
          fill="black"/>
    <path d="M92.3314 81.2755L91.748 92.75L92.7322 92.8L93.3156 81.3255L92.3314 81.2755Z" fill="black"/>
    <path d="M122.007 67.2122L121.052 67.4531L125.87 86.5625L126.825 86.3216L122.007 67.2122Z" fill="black"/>
</svg>
