<svg width="104" height="103" viewBox="0 0 104 103" fill="none" xmlns="http://www.w3.org/2000/svg">
    <path d="M0.683698 41.8273C0.683698 41.8273 2.99954 50.528 8.8384 62.3179C17.1163 79.0346 21.1567 85.735 25.4139 92.9134C30.5974 101.654 46.4239 110.512 76.9585 91.6028C108.592 72.0089 103.768 59.0859 101.674 54.6074C100.432 51.947 90.341 33.1167 81.9942 18.824C78.7323 13.2469 75.6527 8.47773 73.6177 5.41326C72.7759 4.15174 71.6685 3.08938 70.3732 2.30049C69.0778 1.5116 67.6257 1.01522 66.1184 0.846105C57.7912 -0.0899889 40.1515 0.00362124 22.014 13.1631C-3.00686 31.2593 0.683698 41.8273 0.683698 41.8273Z"
          fill="white"/>
    <path d="M102.945 64.1786C103.338 62.1148 103.12 59.9814 102.318 58.0396C101.517 56.0977 100.166 54.4319 98.4318 53.246C89.4691 47.0678 71.9278 46.8017 49.681 60.853C25.2366 76.2936 24.67 89.3595 28.3113 96.597C35.4312 103.623 50.7995 107.81 76.9586 91.6061C95.7021 79.9936 101.644 70.7312 102.945 64.1786Z"
          fill="#F2BDBA"/>
    <path d="M32.8643 96.1178C29.8241 91.7675 29.7601 78.1399 52.5735 63.463C75.5693 48.6825 95.7516 52.8752 98.7178 60.8517C101.684 68.8282 85.1529 83.4362 66.7494 92.7873C50.1099 101.252 36.2543 100.941 32.8643 96.1178Z"
          fill="black"/>
    <path d="M29.8245 38.9436C28.3906 35.3323 28.3463 31.3169 30.0363 28.6811C30.4305 28.0652 31.1548 27.0601 30.7853 26.4246L27.6121 21.8082C26.942 20.6454 25.1928 21.3746 24.3897 22.4487C20.4478 27.7844 18.9696 34.7361 21.926 42.1559C26.267 53.0688 34.333 56.2614 42.6207 54.2315C42.934 54.1561 43.2253 54.0085 43.4714 53.8007C43.7176 53.5928 43.9118 53.3303 44.0386 53.0341C44.1654 52.738 44.2213 52.4163 44.2018 52.0947C44.1824 51.7731 44.0881 51.4605 43.9264 51.1818L41.5022 47.1665C41.2393 46.718 40.854 46.3537 40.3915 46.1164C39.929 45.879 39.4084 45.7784 38.8907 45.8264C35.3283 46.1368 31.7511 43.7916 29.8245 38.9436ZM53.4756 26.0699C47.1932 16.1226 37.2154 14.6052 30.6769 17.0883C30.4077 17.1855 30.1629 17.3401 29.9595 17.5414C29.7561 17.7428 29.599 17.986 29.4991 18.2542C29.3992 18.5224 29.359 18.8091 29.3811 19.0944C29.4033 19.3798 29.4873 19.6568 29.6274 19.9064L33.2095 24.7643C33.4181 25.1156 33.7306 25.3935 34.1041 25.5595C34.4775 25.7254 34.8932 25.7712 35.2938 25.6905C38.7823 25.0155 43.0691 26.3655 45.8924 30.6173C48.1344 34.007 48.1294 39.3131 44.5719 42.7225C43.7934 43.4714 43.8722 44.7573 44.4142 45.6786L46.6907 49.62C47.5874 51.172 49.6076 51.3198 50.9823 50.1718C57.4223 44.7819 57.8954 33.0462 53.4903 26.0699H53.4756Z"
          fill="#3834A5"/>
</svg>
